<svg version="1.1" viewBox="0.0 0.0 960.0 720.0" fill="none" stroke="none" stroke-linecap="square" stroke-miterlimit="10" xmlns:xlink="http://www.w3.org/1999/xlink" xmlns="http://www.w3.org/2000/svg"><clipPath id="p.0"><path d="m0 0l960.0 0l0 720.0l-960.0 0l0 -720.0z" clip-rule="nonzero"/></clipPath><g clip-path="url(#p.0)"><path fill="#000000" fill-opacity="0.0" d="m0 0l960.0 0l0 720.0l-960.0 0z" fill-rule="evenodd"/><path fill="#ffd700" d="m245.00874 203.34131l0 0c0 -43.26172 35.07054 -78.332275 78.33229 -78.332275l313.31967 0l0 0c20.775024 0 40.699158 8.252838 55.389282 22.942993c14.690186 14.690155 22.942993 34.614273 22.942993 55.389282l0 313.3197c0 43.26172 -35.070557 78.332275 -78.332275 78.332275l-313.31967 0c-43.26175 0 -78.33229 -35.070557 -78.33229 -78.332275z" fill-rule="evenodd"/><path stroke="#ffd700" stroke-width="1.0" stroke-linejoin="round" stroke-linecap="butt" d="m245.00874 203.34131l0 0c0 -43.26172 35.07054 -78.332275 78.33229 -78.332275l313.31967 0l0 0c20.775024 0 40.699158 8.252838 55.389282 22.942993c14.690186 14.690155 22.942993 34.614273 22.942993 55.389282l0 313.3197c0 43.26172 -35.070557 78.332275 -78.332275 78.332275l-313.31967 0c-43.26175 0 -78.33229 -35.070557 -78.33229 -78.332275z" fill-rule="evenodd"/><path fill="#000000" fill-opacity="0.0" d="m185.5748 150.26768l505.41733 0l0 476.72443l-505.41733 0z" fill-rule="evenodd"/><path fill="#006400" d="m691.4525 349.2424q10.859375 0 16.65625 5.53125q5.8125 5.515625 5.8125 14.15625q0 11.484375 -7.171875 20.75q-7.15625 9.25 -22.078125 9.703125q-28.21875 0.359375 -45.265625 -3.15625q-22.375 47.640625 -58.03125 83.296875q-35.65625 35.640594 -71.90628 35.640594q-35.09375 0 -51.640625 -35.140594q-16.53125 -35.15625 -17.203125 -52.5625q-8.703125 25.265625 -36.4375 56.484375q-27.71875 31.21872 -60.421875 31.21872q-38.125 0 -56.296875 -44.328094q-18.171875 -44.328125 -18.171875 -115.765625q0 -51.484375 9.078125 -113.000015q2.75 -19.59375 11.015625 -28.3125q8.28125 -8.734375 25.25 -8.734375q12.90625 0 20.984375 6.375q8.078125 6.359375 8.078125 22.0q0 2.78125 -0.75 10.25q-10.34375 70.70314 -10.34375 120.093765q0 45.328125 7.0 67.59375q7.015625 22.25 15.25 22.25q8.28125 0 24.09375 -23.484375q15.8125 -23.5 32.5625 -72.859375q16.75 -49.359375 28.4375 -118.14064q3.25 -18.609375 12.734375 -26.34375q9.5 -7.734375 24.875 -7.734375q13.59375 0 20.8125 6.71875q7.21875 6.71875 7.21875 19.21875q0 6.34375 -0.84375 10.078125q-9.5625 55.70314 -9.5625 111.60939q0 38.0625 2.484375 59.9375q2.484375 21.859375 8.4375 31.4375q5.9687805 9.5625 16.171906 9.5625q13.203125 0 32.28125 -23.4375q19.078125 -23.4375 33.0625 -54.265625q-17.46875 -10.890625 -29.078125 -33.53125q-11.59375 -22.640625 -11.59375 -51.765625q0 -28.921875 9.25 -49.51564q9.265625 -20.59375 25.796875 -31.09375q16.53125 -10.5 36.65625 -10.5q25.609375 0 40.5 18.28125q14.90625 18.265625 14.90625 48.562515q0 40.421875 -14.546875 81.390625q8.65625 1.53125 31.9375 1.53125zm-95.046875 -61.078125q0 30.34375 11.046875 38.59375q9.875 -28.375 9.875 -52.453125q0 -12.671875 -2.3125 -16.765625q-2.3125 -4.1093903 -4.671875 -4.1093903q-5.046875 0 -9.5 8.23439q-4.4375 8.21875 -4.4375 26.5z" fill-rule="nonzero"/></g></svg>